<svg width="820" height="134" viewBox="0 0 820 134" fill="none" xmlns="http://www.w3.org/2000/svg">
<g clip-path="url(#clip0_2_235)">
<path d="M150.528 43.3356H110.244L117.951 58.9108L128.929 81.091L144.526 112.603H116.321L100.726 81.091L89.7486 58.9108L82.0396 43.3356H20V21.1555H71.0622L80.2225 39.6627L95.7565 21.1555H150.528V43.3356Z" fill="#121212"/>
<path d="M98.3307 112.603H70.1261L54.5311 81.091H20V58.9108H71.7583L82.7338 81.091L98.3307 112.603Z" fill="#121212"/>
</g>
<path d="M719.01 113.758C712.227 113.758 706.345 112.256 701.365 109.251C696.385 106.16 692.522 101.996 689.774 96.7581C687.113 91.5206 685.782 85.5533 685.782 78.8562C685.782 74.8208 686.254 71.043 687.198 67.5227C688.229 64.0024 689.688 60.8256 691.577 57.9922C693.466 55.073 695.784 52.583 698.532 50.5224C701.279 48.4618 704.37 46.8733 707.805 45.7572C711.239 44.5551 715.017 43.9541 719.138 43.9541C724.891 43.9541 729.914 44.8986 734.207 46.7875C738.586 48.6764 742.106 51.381 744.768 54.9013C747.429 58.3357 749.061 62.4999 749.662 67.3939H731.502C731.073 65.2474 730.257 63.4443 729.055 61.9847C727.939 60.5251 726.479 59.4518 724.676 58.765C722.959 57.9922 721.07 57.6059 719.01 57.6059C717.035 57.6059 715.232 57.9493 713.6 58.6362C712.055 59.2372 710.681 60.1387 709.479 61.3408C708.277 62.4569 707.29 63.9166 706.517 65.7196C705.744 67.4368 705.143 69.4116 704.714 71.644C704.285 73.7905 704.07 76.1516 704.07 78.7274C704.07 83.0204 704.628 86.7983 705.744 90.061C706.86 93.2378 708.535 95.7277 710.767 97.5308C712.999 99.248 715.747 100.107 719.01 100.107C722.186 100.107 724.848 99.3768 726.995 97.9172C729.141 96.3717 730.687 94.0105 731.631 90.8337H749.79C749.104 95.2126 747.515 99.1192 745.025 102.554C742.535 105.988 739.101 108.736 734.722 110.796C730.429 112.771 725.192 113.758 719.01 113.758Z" fill="#121212"/>
<path d="M660.585 111.956V45.758H678.744V111.956H660.585ZM660.327 35.5836V20H679.002V35.5836H660.327Z" fill="#121212"/>
<path d="M587.503 111.955V45.7572H605.663V61.5984L603.86 59.9241C605.234 56.2321 607.122 53.227 609.527 50.9088C611.931 48.5047 614.635 46.7445 617.64 45.6284C620.731 44.5122 623.951 43.9541 627.3 43.9541C631.077 43.9541 634.426 44.598 637.345 45.8859C640.264 47.088 642.669 48.8481 644.557 51.1663C646.532 53.3987 647.992 56.1462 648.936 59.4089C649.967 62.6716 650.482 66.3207 650.482 70.3561V111.955H632.322V72.6743C632.322 69.6692 631.807 67.1363 630.777 65.0757C629.747 62.9292 628.33 61.3408 626.527 60.3105C624.724 59.1943 622.62 58.6362 620.216 58.6362C617.297 58.6362 614.721 59.366 612.489 60.8256C610.342 62.1994 608.668 64.1312 607.466 66.6212C606.264 69.0253 605.663 71.7728 605.663 74.8637V111.955H587.503Z" fill="#121212"/>
<path d="M547.071 113.758C540.03 113.758 534.02 112.256 529.04 109.251C524.06 106.246 520.24 102.124 517.578 96.8869C514.916 91.6494 513.585 85.6392 513.585 78.8562C513.585 74.7349 514.058 70.9142 515.002 67.3939C516.032 63.8736 517.449 60.6968 519.252 57.8634C521.141 54.9442 523.416 52.4542 526.078 50.3936C528.826 48.333 531.96 46.7445 535.48 45.6284C539 44.5122 542.864 43.9541 547.071 43.9541C554.111 43.9541 560.122 45.4566 565.102 48.4618C570.081 51.4669 573.859 55.5881 576.435 60.8256C579.097 65.9772 580.428 71.9874 580.428 78.8562C580.428 82.9775 579.955 86.7983 579.011 90.3186C578.066 93.8388 576.65 97.0586 574.761 99.9778C572.872 102.811 570.554 105.258 567.806 107.319C565.144 109.38 562.053 110.968 558.533 112.084C555.099 113.2 551.278 113.758 547.071 113.758ZM547.071 100.107C549.046 100.107 550.806 99.8061 552.351 99.2051C553.983 98.6041 555.399 97.7025 556.601 96.5005C557.889 95.2984 558.92 93.8388 559.692 92.1216C560.551 90.3186 561.152 88.3008 561.495 86.0685C561.925 83.8361 562.139 81.432 562.139 78.8562C562.139 74.3056 561.581 70.4849 560.465 67.3939C559.349 64.2171 557.632 61.813 555.313 60.1817C553.081 58.4645 550.334 57.6059 547.071 57.6059C545.096 57.6059 543.293 57.9064 541.662 58.5074C540.03 59.1084 538.614 60.0099 537.412 61.212C536.21 62.414 535.179 63.8736 534.321 65.5908C533.548 67.3081 532.947 69.2828 532.518 71.5152C532.088 73.6617 531.874 76.1087 531.874 78.8562C531.874 83.2351 532.432 87.0559 533.548 90.3186C534.75 93.4954 536.467 95.9424 538.7 97.6596C540.932 99.2909 543.722 100.107 547.071 100.107Z" fill="#121212"/>
<path d="M480.829 113.758C476.279 113.758 472.2 113.2 468.594 112.084C464.988 111.054 461.897 109.637 459.321 107.834C456.746 105.945 454.728 103.713 453.268 101.137C451.895 98.5611 451.079 95.6848 450.821 92.508H468.852C469.281 94.4828 470.054 96.0712 471.17 97.2732C472.286 98.4753 473.703 99.3768 475.42 99.9778C477.223 100.579 479.241 100.879 481.473 100.879C483.62 100.879 485.466 100.579 487.011 99.9778C488.643 99.3768 489.888 98.5182 490.746 97.402C491.605 96.2858 492.034 94.9121 492.034 93.2807C492.034 91.6494 491.433 90.2756 490.231 89.1594C489.029 87.9574 487.312 87.0988 485.079 86.5836L471.299 83.6215C465.203 82.3336 460.566 80.1012 457.39 76.9244C454.213 73.7476 452.624 69.7121 452.624 64.8181C452.624 61.6413 453.311 58.8079 454.685 56.318C456.059 53.7421 457.948 51.5527 460.352 49.7497C462.842 47.8607 465.761 46.444 469.109 45.4996C472.458 44.4693 476.15 43.9541 480.185 43.9541C485.595 43.9541 490.36 44.7268 494.481 46.2723C498.688 47.7319 502.037 49.9214 504.527 52.8406C507.017 55.674 508.476 59.1943 508.906 63.4014H490.746C490.489 62.0277 489.888 60.8685 488.943 59.9241C487.999 58.8938 486.754 58.121 485.208 57.6059C483.749 57.0048 482.031 56.7043 480.057 56.7043C478.082 56.7043 476.322 57.0048 474.776 57.6059C473.317 58.2069 472.158 59.0225 471.299 60.0529C470.44 61.0832 470.011 62.3282 470.011 63.7878C470.011 65.6767 470.741 67.1363 472.2 68.1667C473.66 69.197 475.42 69.9268 477.481 70.3561L491.905 73.3183C494.739 73.9193 497.529 74.9496 500.277 76.4092C503.024 77.783 505.3 79.7578 507.103 82.3336C508.906 84.9094 509.807 88.215 509.807 92.2504C509.807 95.7707 509.077 98.9046 507.618 101.652C506.244 104.314 504.226 106.546 501.565 108.349C498.989 110.066 495.941 111.397 492.421 112.342C488.9 113.286 485.037 113.758 480.829 113.758Z" fill="#121212"/>
<path d="M381.474 111.955V45.7572H399.633V61.5984L397.83 59.9241C399.204 56.2321 401.093 53.227 403.497 50.9088C405.901 48.5047 408.605 46.7445 411.611 45.6284C414.702 44.5122 417.921 43.9541 421.27 43.9541C425.048 43.9541 428.396 44.598 431.315 45.8859C434.235 47.088 436.639 48.8481 438.528 51.1663C440.502 53.3987 441.962 56.1462 442.907 59.4089C443.937 62.6716 444.452 66.3207 444.452 70.3561V111.955H426.293V72.6743C426.293 69.6692 425.777 67.1363 424.747 65.0757C423.717 62.9292 422.3 61.3408 420.497 60.3105C418.694 59.1943 416.59 58.6362 414.186 58.6362C411.267 58.6362 408.691 59.366 406.459 60.8256C404.312 62.1994 402.638 64.1312 401.436 66.6212C400.234 69.0253 399.633 71.7728 399.633 74.8637V111.955H381.474Z" fill="#121212"/>
<path d="M352.671 111.956V45.758H370.83V111.956H352.671ZM352.413 35.5836V20H371.088V35.5836H352.413Z" fill="#121212"/>
<path d="M303.396 113.758C297.042 113.758 291.976 111.998 288.199 108.478C284.507 104.958 282.661 100.364 282.661 94.6974C282.661 90.8337 283.519 87.5281 285.236 84.7806C287.04 81.9472 289.701 79.586 293.221 77.6971C296.742 75.7223 301.206 74.3056 306.616 73.447L318.593 71.3864C320.997 71.043 322.629 70.3561 323.487 69.3258C324.432 68.2096 324.904 66.8358 324.904 65.2045V65.0757C324.904 63.2726 324.475 61.7701 323.616 60.568C322.843 59.2801 321.684 58.2927 320.139 57.6059C318.679 56.919 316.833 56.5755 314.601 56.5755C311.252 56.5755 308.547 57.1336 306.487 58.2498C304.512 59.366 303.267 61.212 302.752 63.7878H285.108C285.795 59.2372 287.469 55.5023 290.13 52.583C292.878 49.6638 296.355 47.5173 300.562 46.1435C304.855 44.6839 309.664 43.9541 314.987 43.9541C321.083 43.9541 326.192 44.8986 330.313 46.7875C334.434 48.5905 337.525 51.3381 339.586 55.0301C341.647 58.6362 342.677 63.1438 342.677 68.553V111.955H325.677V96.5005L327.608 98.1748C326.063 102.038 324.045 105.087 321.555 107.319C319.151 109.551 316.404 111.183 313.313 112.213C310.308 113.243 307.002 113.758 303.396 113.758ZM309.578 100.493C311.982 100.493 314.128 100.021 316.017 99.0763C317.906 98.046 319.495 96.7151 320.783 95.0838C322.156 93.3666 323.187 91.4347 323.874 89.2882C324.56 87.0559 324.904 84.7806 324.904 82.4624V74.3486L327.866 77.6971C326.75 78.7274 325.591 79.4573 324.389 79.8866C323.272 80.3159 321.512 80.8739 319.108 81.5608L309.964 83.4927C306.959 84.0937 304.641 85.167 303.009 86.7124C301.378 88.1721 300.562 90.061 300.562 92.3792C300.562 95.0409 301.378 97.0586 303.009 98.4323C304.641 99.8061 306.83 100.493 309.578 100.493Z" fill="#121212"/>
<path d="M239.714 111.956V45.7578H257.745V65.4626L256.457 64.6899C257.573 60.0535 259.076 56.3615 260.965 53.6139C262.854 50.7806 265.172 48.7629 267.919 47.5608C270.667 46.3588 273.844 45.7578 277.45 45.7578H281.7V63.1444H275.518C271.74 63.1444 268.52 63.9601 265.859 65.5914C263.197 67.2228 261.179 69.5839 259.806 72.6749C258.432 75.7659 257.745 79.5437 257.745 84.0084V111.956H239.714Z" fill="#121212"/>
<path d="M195.99 111.956V35.7124H167.528V20H243.385V35.7124H214.923V111.956H195.99Z" fill="#121212"/>
<path d="M783.16 78.3792C792.238 78.3792 799.618 85.9291 799.618 95.1607C799.618 104.392 792.238 111.988 783.16 111.988C774.082 111.988 766.791 104.438 766.791 95.1607C766.791 85.8833 774.08 78.3792 783.16 78.3792ZM783.16 108.533C790.271 108.533 795.862 102.713 795.862 95.1627C795.862 87.6128 790.271 81.8363 783.16 81.8363C776.049 81.8363 770.459 87.6567 770.459 95.1627C770.459 102.669 776.004 108.533 783.16 108.533ZM778.598 95.1607C778.598 98.6617 780.834 100.618 783.383 100.618C786.066 100.618 787.275 98.7534 787.677 97.4343L791.255 98.7534C790.449 101.481 787.9 104.438 783.383 104.438C778.375 104.438 774.529 100.481 774.529 95.1607C774.529 89.8406 778.375 85.9291 783.295 85.9291C787.902 85.9291 790.406 88.8861 791.121 91.6598L787.453 93.0247C787.095 91.4785 785.933 89.7947 783.338 89.7947C780.744 89.7947 778.598 91.6598 778.598 95.1607Z" fill="#121212"/>
<defs>
<clipPath id="clip0_2_235">
<rect width="130.528" height="91.4475" fill="white" transform="translate(20 21.1555)"/>
</clipPath>
</defs>
</svg>
